<svg xmlns="http://www.w3.org/2000/svg" width="32" height="32" viewBox="0 0 32 32"><defs><linearGradient id="a" x1="6" x2="235" y1="33" y2="344" gradientTransform="translate(0 .937) scale(.07142)" gradientUnits="userSpaceOnUse"><stop offset="0" stop-color="#41d1ff"/><stop offset="1" stop-color="#bd34fe"/></linearGradient><linearGradient id="b" x1="194.99" x2="236.39" y1="8.36" y2="292.6" gradientTransform="translate(0 .937) scale(.07142)" gradientUnits="userSpaceOnUse"><stop offset="0" stop-color="#ffea83"/><stop offset=".083" stop-color="#ffdd35"/><stop offset="1" stop-color="#ffa800"/></linearGradient></defs><path fill="url(#a)" d="M31.892 6.674 17.42 32.561c-.299.535-1.068.538-1.371.005L1.323 6.677c-.33-.581.166-1.286.827-1.168l14.422 2.577a.756.756 0 0 0 .268 0l14.12-2.573c.658-.12 1.155.578.832 1.16Z"/><path fill="url(#b)" d="M23.211.973 12.501 3.072a.378.378 0 0 0-.305.349L11.537 14.5a.378.378 0 0 0 .463.39l2.981-.688a.378.378 0 0 1 .454.444l-.885 4.336a.378.378 0 0 0 .478.441l1.84-.559c.297-.09.59.166.535.471l-1.407 6.81c-.082.397.446.614.668.275l.149-.227 8.717-17.396a.378.378 0 0 0-.388-.544l-3.067.592a.378.378 0 0 1-.435-.476l2.002-6.939A.378.378 0 0 0 23.21.973Z"/></svg>
