<?xml version="1.0" encoding="UTF-8"?>
<svg version="1.1" xmlns="http://www.w3.org/2000/svg" width="96" height="96">
<path d="M0 0 C1.69282356 -0.02398109 1.69282356 -0.02398109 3.41984558 -0.04844666 C4.63134781 -0.05380936 5.84285004 -0.05917206 7.09106445 -0.06469727 C8.34764359 -0.07372574 9.60422272 -0.08275421 10.89888 -0.09205627 C13.55773236 -0.10655792 16.21615519 -0.1162398 18.875 -0.11914062 C22.25645137 -0.1245056 25.63669737 -0.16211774 29.01780987 -0.20788479 C32.27132103 -0.24507478 35.52486953 -0.24618343 38.77856445 -0.25219727 C40.58063606 -0.28149574 40.58063606 -0.28149574 42.41911316 -0.31138611 C50.0249492 -0.27098953 55.97918517 0.8249742 62.2668457 5.30639648 C67.50337756 10.83749279 70.49019415 16.31922795 70.57324219 24.03955078 C70.58922958 25.16809982 70.60521698 26.29664886 70.62168884 27.45939636 C70.62705154 28.67089859 70.63241425 29.88240082 70.63793945 31.13061523 C70.64696793 32.38719437 70.6559964 33.6437735 70.66529846 34.93843079 C70.67980011 37.59728314 70.68948199 40.25570597 70.69238281 42.91455078 C70.69774779 46.29600215 70.73535993 49.67624815 70.78112698 53.05736065 C70.81831697 56.31087182 70.81942561 59.56442031 70.82543945 62.81811523 C70.84497177 64.01949631 70.86450409 65.22087738 70.8846283 66.45866394 C70.84423172 74.06449998 69.74826799 80.01873595 65.2668457 86.30639648 C59.7357494 91.54292834 54.25401423 94.52974494 46.53369141 94.61279297 C45.40514236 94.62878036 44.27659332 94.64476776 43.11384583 94.66123962 C41.9023436 94.66660233 40.69084137 94.67196503 39.44262695 94.67749023 C38.18604782 94.68651871 36.92946869 94.69554718 35.6348114 94.70484924 C32.97595905 94.71935089 30.31753622 94.72903277 27.65869141 94.73193359 C24.27724004 94.73729857 20.89699404 94.77491071 17.51588154 94.82067776 C14.26237037 94.85786775 11.00882187 94.8589764 7.75512695 94.86499023 C5.95305534 94.89428871 5.95305534 94.89428871 4.11457825 94.92417908 C-3.49125779 94.8837825 -9.44549376 93.78781877 -15.7331543 89.30639648 C-20.96968616 83.77530018 -23.95650275 78.29356502 -24.03955078 70.57324219 C-24.05553818 69.44469315 -24.07152557 68.3161441 -24.08799744 67.15339661 C-24.09336014 65.94189438 -24.09872284 64.73039215 -24.10424805 63.48217773 C-24.11327652 62.2255986 -24.12230499 60.96901947 -24.13160706 59.67436218 C-24.14610871 57.01550983 -24.15579058 54.357087 -24.15869141 51.69824219 C-24.16405638 48.31679082 -24.20166852 44.93654482 -24.24743557 41.55543232 C-24.28462556 38.30192115 -24.28573421 35.04837265 -24.29174805 31.79467773 C-24.31128036 30.59329666 -24.33081268 29.39191559 -24.35093689 28.15412903 C-24.31054031 20.54829299 -23.21457658 14.59405702 -18.7331543 8.30639648 C-13.20205799 3.06986463 -7.72032283 0.08304803 0 0 Z " fill="#1A1A19" transform="translate(24.733154296875,0.693603515625)"/>
<path d="M0 0 C1.69282356 -0.02398109 1.69282356 -0.02398109 3.41984558 -0.04844666 C4.63134781 -0.05380936 5.84285004 -0.05917206 7.09106445 -0.06469727 C8.34764359 -0.07372574 9.60422272 -0.08275421 10.89888 -0.09205627 C13.55773236 -0.10655792 16.21615519 -0.1162398 18.875 -0.11914062 C22.25645137 -0.1245056 25.63669737 -0.16211774 29.01780987 -0.20788479 C32.27132103 -0.24507478 35.52486953 -0.24618343 38.77856445 -0.25219727 C40.58063606 -0.28149574 40.58063606 -0.28149574 42.41911316 -0.31138611 C50.0249492 -0.27098953 55.97918517 0.8249742 62.2668457 5.30639648 C67.50337756 10.83749279 70.49019415 16.31922795 70.57324219 24.03955078 C70.58922958 25.16809982 70.60521698 26.29664886 70.62168884 27.45939636 C70.62705154 28.67089859 70.63241425 29.88240082 70.63793945 31.13061523 C70.64696793 32.38719437 70.6559964 33.6437735 70.66529846 34.93843079 C70.67980011 37.59728314 70.68948199 40.25570597 70.69238281 42.91455078 C70.69774779 46.29600215 70.73535993 49.67624815 70.78112698 53.05736065 C70.81831697 56.31087182 70.81942561 59.56442031 70.82543945 62.81811523 C70.84497177 64.01949631 70.86450409 65.22087738 70.8846283 66.45866394 C70.84423172 74.06449998 69.74826799 80.01873595 65.2668457 86.30639648 C59.7357494 91.54292834 54.25401423 94.52974494 46.53369141 94.61279297 C45.40514236 94.62878036 44.27659332 94.64476776 43.11384583 94.66123962 C41.9023436 94.66660233 40.69084137 94.67196503 39.44262695 94.67749023 C38.18604782 94.68651871 36.92946869 94.69554718 35.6348114 94.70484924 C32.97595905 94.71935089 30.31753622 94.72903277 27.65869141 94.73193359 C24.27724004 94.73729857 20.89699404 94.77491071 17.51588154 94.82067776 C14.26237037 94.85786775 11.00882187 94.8589764 7.75512695 94.86499023 C5.95305534 94.89428871 5.95305534 94.89428871 4.11457825 94.92417908 C-3.49125779 94.8837825 -9.44549376 93.78781877 -15.7331543 89.30639648 C-20.96968616 83.77530018 -23.95650275 78.29356502 -24.03955078 70.57324219 C-24.05553818 69.44469315 -24.07152557 68.3161441 -24.08799744 67.15339661 C-24.09336014 65.94189438 -24.09872284 64.73039215 -24.10424805 63.48217773 C-24.11327652 62.2255986 -24.12230499 60.96901947 -24.13160706 59.67436218 C-24.14610871 57.01550983 -24.15579058 54.357087 -24.15869141 51.69824219 C-24.16405638 48.31679082 -24.20166852 44.93654482 -24.24743557 41.55543232 C-24.28462556 38.30192115 -24.28573421 35.04837265 -24.29174805 31.79467773 C-24.31128036 30.59329666 -24.33081268 29.39191559 -24.35093689 28.15412903 C-24.31054031 20.54829299 -23.21457658 14.59405702 -18.7331543 8.30639648 C-13.20205799 3.06986463 -7.72032283 0.08304803 0 0 Z M-10.7331543 15.30639648 C-13.24269482 18.85294601 -14.11285077 21.28213207 -14.15307617 25.61230469 C-14.16898804 26.64720535 -14.1848999 27.68210602 -14.20129395 28.74836731 C-14.20149536 29.85677475 -14.20169678 30.96518219 -14.2019043 32.10717773 C-14.20951782 33.25751999 -14.21713135 34.40786224 -14.22497559 35.59306335 C-14.23577112 38.02474805 -14.23863193 40.4564791 -14.23413086 42.88818359 C-14.23316044 46.59543932 -14.27475316 50.30061232 -14.3190918 54.00756836 C-14.32430047 56.37410052 -14.32698696 58.74063984 -14.3269043 61.10717773 C-14.35149719 62.76067986 -14.35149719 62.76067986 -14.37658691 64.44758606 C-14.31524202 71.33238815 -13.38651127 76.07710376 -8.7331543 81.30639648 C-4.18181572 85.60556271 1.94592867 84.75593905 7.84887695 84.73999023 C8.97702316 84.74523209 10.10516937 84.75047394 11.26750183 84.75587463 C13.65212177 84.76229174 16.03677337 84.7609619 18.42138672 84.75244141 C22.05599928 84.74395102 25.68902973 84.77266804 29.32348633 84.80444336 C31.6444494 84.80605606 33.96541524 84.80547652 36.28637695 84.80249023 C37.36683792 84.81372421 38.44729889 84.82495819 39.5605011 84.83653259 C45.81246351 84.77927664 51.30965292 84.45270368 56.2668457 80.30639648 C61.09505142 74.51246264 60.8664827 67.59320994 60.83325195 60.39624023 C60.83945053 59.26996719 60.84564911 58.14369415 60.85203552 56.98329163 C60.85911151 54.612405 60.85599876 52.24146844 60.84326172 49.87060547 C60.82937398 46.25126626 60.86353082 42.63450307 60.90161133 39.01538086 C60.90256241 36.70483335 60.90070427 34.39428263 60.89575195 32.08374023 C60.90901016 31.00752914 60.92226837 29.93131805 60.93592834 28.82249451 C60.86597817 23.15905952 60.50574434 19.03509019 56.70983887 14.64833069 C51.02230572 9.35911972 44.67638732 9.8389833 37.33325195 9.83764648 C35.60630348 9.8262262 35.60630348 9.8262262 33.84446716 9.8145752 C31.41456262 9.80379058 28.98461179 9.8009144 26.5546875 9.80541992 C22.8453211 9.8063923 19.13802313 9.76474636 15.42895508 9.72045898 C13.063725 9.71525172 10.69848776 9.7125638 8.33325195 9.71264648 C7.22889297 9.69625122 6.124534 9.67985596 4.98670959 9.66296387 C-1.48368946 9.72079089 -6.25689993 10.31490281 -10.7331543 15.30639648 Z " fill="#F87216" transform="translate(24.733154296875,0.693603515625)"/>
</svg>
